<svg id="Layer_1" data-name="Layer 1" xmlns="http://www.w3.org/2000/svg" viewBox="0 0 1200 1200"><path d="M704.1,902.64A319.38,319.38,0,0,1,600,920C477.28,920,370.74,851,317.06,749.57H189.69c57.68,158.19,204.13,273.67,379.13,286L704.1,1200Z" fill="#dbfc3c"/><path d="M645.43,600A45.43,45.43,0,1,0,600,645.45,45.44,45.44,0,0,0,645.43,600Z" fill="#dbfc3c"/><path d="M852.85,600a45.44,45.44,0,1,0-45.44,45.44A45.44,45.44,0,0,0,852.85,600Z" fill="#dbfc3c"/><path d="M438,600a45.44,45.44,0,1,0-45.45,45.44A45.45,45.45,0,0,0,438,600Z" fill="#dbfc3c"/><path d="M495.88,297.38A319.51,319.51,0,0,1,600,280c122.71,0,229.25,69.11,282.93,170.49h127.36c-57.66-158.18-204.12-273.66-379.11-286L495.88,0Z" fill="#dbfc3c"/><path d="M297.38,704.11A319.08,319.08,0,0,1,280,600c0-122.71,69.1-229.24,170.49-282.94V189.71c-158.19,57.67-273.66,204.13-286,379.12L0,704.11Z" fill="#dbfc3c"/><path d="M902.63,495.91A319.6,319.6,0,0,1,920,600C920,722.73,850.94,829.25,749.55,883v127.36c158.19-57.67,273.66-204.12,286-379.11L1200,495.91Z" fill="#dbfc3c"/></svg>